<svg width="338" height="369" viewBox="0 0 338 369" fill="none" xmlns="http://www.w3.org/2000/svg">
<path opacity="0.4" d="M7 72H6V73H7V72ZM7 0.499997V-0.500003H6V0.499997H7ZM84.1 6.1L83.4237 6.83667L83.4297 6.8421L84.1 6.1ZM84.1 40.1L83.4297 39.3579L83.4237 39.3633L84.1 40.1ZM23 45.7V44.7H22V45.7H23ZM23 72V73H24V72H23ZM23 13.5V12.5H22V13.5H23ZM23 32.6H22V33.5976L22.9976 33.6L23 32.6ZM65 32.7L64.9976 33.7H65V32.7ZM71.7 30.5L71.0243 29.7628L71.0164 29.77L71.0088 29.7774L71.7 30.5ZM71.7 15.7L71.0088 16.4226L71.0248 16.438L71.0415 16.4526L71.7 15.7ZM8 72V0.499997H6V72H8ZM7 1.5H66.9V-0.500003H7V1.5ZM66.9 1.5C74.1364 1.5 79.5968 3.32344 83.4237 6.83665L84.7763 5.36334C80.4698 1.40989 74.4636 -0.500003 66.9 -0.500003V1.5ZM83.4297 6.8421C87.2848 10.3241 89.3 15.6755 89.3 23.1H91.3C91.3 15.3245 89.1818 9.34251 84.7703 5.35789L83.4297 6.8421ZM89.3 23.1C89.3 30.5245 87.2848 35.8758 83.4297 39.3579L84.7703 40.8421C89.1818 36.8575 91.3 30.8755 91.3 23.1H89.3ZM83.4237 39.3633C79.5968 42.8766 74.1364 44.7 66.9 44.7V46.7C74.4636 46.7 80.4698 44.7901 84.7763 40.8367L83.4237 39.3633ZM66.9 44.7H23V46.7H66.9V44.7ZM22 45.7V72H24V45.7H22ZM23 71H7V73H23V71ZM65 12.5H23V14.5H65V12.5ZM22 13.5V32.6H24V13.5H22ZM22.9976 33.6L64.9976 33.7L65.0024 31.7L23.0024 31.6L22.9976 33.6ZM65 33.7C68.0911 33.7 70.6104 32.926 72.3912 31.2226L71.0088 29.7774C69.7229 31.0073 67.7756 31.7 65 31.7V33.7ZM72.3757 31.2372C74.278 29.4934 75.1 26.6836 75.1 23.1H73.1C73.1 26.4498 72.322 28.5733 71.0243 29.7628L72.3757 31.2372ZM75.1 23.1C75.1 19.4628 74.2838 16.632 72.3585 14.9474L71.0415 16.4526C72.3162 17.568 73.1 19.6705 73.1 23.1H75.1ZM72.3912 14.9774C70.6104 13.274 68.0911 12.5 65 12.5V14.5C67.7756 14.5 69.7229 15.1927 71.0088 16.4226L72.3912 14.9774ZM115.762 72H114.762V73H115.762V72ZM115.762 0.499997V-0.500003H114.762V0.499997H115.762ZM131.762 0.499997H132.762V-0.500003H131.762V0.499997ZM131.762 29.8H130.762V30.8H131.762V29.8ZM182.162 29.8V30.8H183.162V29.8H182.162ZM182.162 0.499997V-0.500003H181.162V0.499997H182.162ZM198.162 0.499997H199.162V-0.500003H198.162V0.499997ZM198.162 72V73H199.162V72H198.162ZM182.162 72H181.162V73H182.162V72ZM182.162 42.8H183.162V41.8H182.162V42.8ZM131.762 42.8V41.8H130.762V42.8H131.762ZM131.762 72V73H132.762V72H131.762ZM116.762 72V0.499997H114.762V72H116.762ZM115.762 1.5H131.762V-0.500003H115.762V1.5ZM130.762 0.499997V29.8H132.762V0.499997H130.762ZM131.762 30.8H182.162V28.8H131.762V30.8ZM183.162 29.8V0.499997H181.162V29.8H183.162ZM182.162 1.5H198.162V-0.500003H182.162V1.5ZM197.162 0.499997V72H199.162V0.499997H197.162ZM198.162 71H182.162V73H198.162V71ZM183.162 72V42.8H181.162V72H183.162ZM182.162 41.8H131.762V43.8H182.162V41.8ZM130.762 42.8V72H132.762V42.8H130.762ZM131.762 71H115.762V73H131.762V71ZM221.648 72L220.737 71.5894L220.101 73H221.648V72ZM253.848 0.499997V-0.500003H253.202L252.937 0.0893669L253.848 0.499997ZM278.548 0.499997L279.46 0.0893669L279.195 -0.500003H278.548V0.499997ZM310.748 72V73H312.296L311.66 71.5894L310.748 72ZM293.348 72L292.437 72.4106L292.702 73H293.348V72ZM286.548 56.9L287.46 56.4894L287.195 55.9H286.548V56.9ZM245.848 56.9V55.9H245.202L244.937 56.4894L245.848 56.9ZM239.048 72V73H239.695L239.96 72.4106L239.048 72ZM251.648 43.9L250.736 43.4898L250.102 44.9H251.648V43.9ZM280.748 43.9V44.9H282.295L281.66 43.4898L280.748 43.9ZM266.848 13L267.76 12.5898L267.495 12H266.848V13ZM265.548 13V12H264.902L264.636 12.5898L265.548 13ZM222.56 72.4106L254.76 0.910626L252.937 0.0893669L220.737 71.5894L222.56 72.4106ZM253.848 1.5H278.548V-0.500003H253.848V1.5ZM277.637 0.910626L309.837 72.4106L311.66 71.5894L279.46 0.0893669L277.637 0.910626ZM310.748 71H293.348V73H310.748V71ZM294.26 71.5894L287.46 56.4894L285.637 57.3106L292.437 72.4106L294.26 71.5894ZM286.548 55.9H245.848V57.9H286.548V55.9ZM244.937 56.4894L238.137 71.5894L239.96 72.4106L246.76 57.3106L244.937 56.4894ZM239.048 71H221.648V73H239.048V71ZM251.648 44.9H280.748V42.9H251.648V44.9ZM281.66 43.4898L267.76 12.5898L265.936 13.4102L279.836 44.3102L281.66 43.4898ZM266.848 12H265.548V14H266.848V12ZM264.636 12.5898L250.736 43.4898L252.56 44.3102L266.46 13.4102L264.636 12.5898ZM7 171H6V172H7V171ZM7 99.5V98.5H6V99.5H7ZM23.2 99.5L23.9126 98.7985L23.6188 98.5H23.2V99.5ZM73.8 150.9L73.0874 151.602L74.8 153.341V150.9H73.8ZM73.8 99.5V98.5H72.8V99.5H73.8ZM89.8 99.5H90.8V98.5H89.8V99.5ZM89.8 171V172H90.8V171H89.8ZM73.6 171L72.8867 171.701L73.1806 172H73.6V171ZM23 119.5L23.7133 118.799L22 117.055V119.5H23ZM23 171V172H24V171H23ZM8 171V99.5H6V171H8ZM7 100.5H23.2V98.5H7V100.5ZM22.4874 100.202L73.0874 151.602L74.5126 150.198L23.9126 98.7985L22.4874 100.202ZM74.8 150.9V99.5H72.8V150.9H74.8ZM73.8 100.5H89.8V98.5H73.8V100.5ZM88.8 99.5V171H90.8V99.5H88.8ZM89.8 170H73.6V172H89.8V170ZM74.3133 170.299L23.7133 118.799L22.2867 120.201L72.8867 171.701L74.3133 170.299ZM22 119.5V171H24V119.5H22ZM23 170H7V172H23V170ZM116.777 135.7H115.777V136.7H116.777V135.7ZM116.777 99.5V98.5H115.777V99.5H116.777ZM204.777 99.5H205.777V98.5H204.777V99.5ZM204.777 135.7V136.7H205.777V135.7H204.777ZM188.577 135.7H187.577V136.7H188.577V135.7ZM188.577 112.5H189.577V111.5H188.577V112.5ZM166.777 112.5V111.5H165.777V112.5H166.777ZM166.777 171V172H167.777V171H166.777ZM150.777 171H149.777V172H150.777V171ZM150.777 112.5H151.777V111.5H150.777V112.5ZM132.977 112.5V111.5H131.977V112.5H132.977ZM132.977 135.7V136.7H133.977V135.7H132.977ZM117.777 135.7V99.5H115.777V135.7H117.777ZM116.777 100.5H204.777V98.5H116.777V100.5ZM203.777 99.5V135.7H205.777V99.5H203.777ZM204.777 134.7H188.577V136.7H204.777V134.7ZM189.577 135.7V112.5H187.577V135.7H189.577ZM188.577 111.5H166.777V113.5H188.577V111.5ZM165.777 112.5V171H167.777V112.5H165.777ZM166.777 170H150.777V172H166.777V170ZM151.777 171V112.5H149.777V171H151.777ZM150.777 111.5H132.977V113.5H150.777V111.5ZM131.977 112.5V135.7H133.977V112.5H131.977ZM132.977 134.7H116.777V136.7H132.977V134.7ZM238.25 162.4L237.591 163.152L237.595 163.156L238.25 162.4ZM238.25 108.2L238.905 108.956L238.909 108.952L238.25 108.2ZM316.85 108.2L316.191 108.952L316.195 108.956L316.85 108.2ZM316.85 162.4L317.505 163.156L317.509 163.152L316.85 162.4ZM252.35 116L252.892 116.84L252.35 116ZM244.55 128.7L243.566 128.519L243.349 129.7H244.55V128.7ZM310.55 128.7V129.7H311.751L311.534 128.519L310.55 128.7ZM302.75 116L302.208 116.84L302.75 116ZM302.75 154.5L302.208 153.66L302.202 153.664L302.75 154.5ZM310.55 141.7L311.534 141.879L311.748 140.7H310.55V141.7ZM244.55 141.7V140.7H243.352L243.566 141.879L244.55 141.7ZM267.85 170.5C255.267 170.5 245.665 167.503 238.905 161.644L237.595 163.156C244.835 169.43 254.966 172.5 267.85 172.5V170.5ZM238.909 161.648C232.185 155.756 228.75 147.001 228.75 135.2H226.75C226.75 147.399 230.315 156.777 237.591 163.152L238.909 161.648ZM228.75 135.2C228.75 123.467 232.184 114.781 238.905 108.956L237.595 107.444C230.316 113.753 226.75 123.066 226.75 135.2H228.75ZM238.909 108.952C245.663 103.034 255.492 100 268.55 100V98C255.208 98 244.837 101.099 237.591 107.448L238.909 108.952ZM268.55 100H286.55V98H268.55V100ZM286.55 100C299.608 100 309.437 103.034 316.191 108.952L317.509 107.448C310.263 101.099 299.892 98 286.55 98V100ZM316.195 108.956C322.916 114.781 326.35 123.467 326.35 135.2H328.35C328.35 123.066 324.784 113.753 317.505 107.444L316.195 108.956ZM326.35 135.2C326.35 147.001 322.915 155.756 316.191 161.648L317.509 163.152C324.785 156.777 328.35 147.399 328.35 135.2H326.35ZM316.195 161.644C309.437 167.501 299.769 170.5 287.05 170.5V172.5C300.064 172.5 310.263 169.432 317.505 163.156L316.195 161.644ZM287.05 170.5H267.85V172.5H287.05V170.5ZM269.65 111C262.148 111 256.165 112.349 251.808 115.16L252.892 116.84C256.802 114.318 262.352 113 269.65 113V111ZM251.808 115.16C247.397 118.005 244.672 122.506 243.566 128.519L245.534 128.881C246.561 123.294 249.036 119.328 252.892 116.84L251.808 115.16ZM244.55 129.7H310.55V127.7H244.55V129.7ZM311.534 128.519C310.428 122.506 307.703 118.005 303.292 115.16L302.208 116.84C306.064 119.328 308.539 123.294 309.566 128.881L311.534 128.519ZM303.292 115.16C298.935 112.349 292.952 111 285.45 111V113C292.748 113 298.298 114.318 302.208 116.84L303.292 115.16ZM285.45 111H269.65V113H285.45V111ZM269.95 159.5H285.45V157.5H269.95V159.5ZM285.45 159.5C293.015 159.5 299.003 158.153 303.298 155.336L302.202 153.664C298.363 156.181 292.819 157.5 285.45 157.5V159.5ZM303.292 155.34C307.706 152.493 310.429 147.955 311.534 141.879L309.566 141.521C308.538 147.178 306.061 151.174 302.208 153.66L303.292 155.34ZM310.55 140.7H244.55V142.7H310.55V140.7ZM243.566 141.879C244.671 147.955 247.394 152.493 251.808 155.34L252.892 153.66C249.039 151.174 246.562 147.178 245.534 141.521L243.566 141.879ZM251.808 155.34C256.168 158.154 262.255 159.5 269.95 159.5V157.5C262.445 157.5 256.798 156.18 252.892 153.66L251.808 155.34ZM7 270H6V271H7V270ZM7 198.5V197.5H6V198.5H7ZM20.4 198.5L20.974 197.681L20.7156 197.5H20.4V198.5ZM53.5 221.7L52.926 222.519L53.1844 222.7H53.5V221.7ZM54 221.7V222.7H54.3156L54.574 222.519L54 221.7ZM87.1 198.5V197.5H86.7844L86.526 197.681L87.1 198.5ZM100.5 198.5H101.5V197.5H100.5V198.5ZM100.5 270V271H101.5V270H100.5ZM84.5 270H83.5V271H84.5V270ZM84.5 218.5H85.5V216.627L83.9436 217.669L84.5 218.5ZM61.8 233.7L61.2436 232.869L60.8 233.166V233.7H61.8ZM61.8 270V271H62.8V270H61.8ZM45.8 270H44.8V271H45.8V270ZM45.8 233.7H46.8V233.165L46.3547 232.868L45.8 233.7ZM23 218.5L23.5547 217.668L22 216.631V218.5H23ZM23 270V271H24V270H23ZM8 270V198.5H6V270H8ZM7 199.5H20.4V197.5H7V199.5ZM19.826 199.319L52.926 222.519L54.074 220.881L20.974 197.681L19.826 199.319ZM53.5 222.7H54V220.7H53.5V222.7ZM54.574 222.519L87.674 199.319L86.526 197.681L53.426 220.881L54.574 222.519ZM87.1 199.5H100.5V197.5H87.1V199.5ZM99.5 198.5V270H101.5V198.5H99.5ZM100.5 269H84.5V271H100.5V269ZM85.5 270V218.5H83.5V270H85.5ZM83.9436 217.669L61.2436 232.869L62.3564 234.531L85.0564 219.331L83.9436 217.669ZM60.8 233.7V270H62.8V233.7H60.8ZM61.8 269H45.8V271H61.8V269ZM46.8 270V233.7H44.8V270H46.8ZM46.3547 232.868L23.5547 217.668L22.4453 219.332L45.2453 234.532L46.3547 232.868ZM22 218.5V270H24V218.5H22ZM23 269H7V271H23V269ZM155.22 270L154.308 270.411L154.573 271H155.22V270ZM123.02 198.5V197.5H121.472L122.108 198.911L123.02 198.5ZM140.42 198.5L141.332 198.09L141.067 197.5H140.42V198.5ZM166.92 257.5L166.007 257.91L166.272 258.5H166.92V257.5ZM168.22 257.5V258.5H168.867L169.132 257.91L168.22 257.5ZM194.72 198.5V197.5H194.072L193.807 198.09L194.72 198.5ZM212.12 198.5L213.031 198.911L213.667 197.5H212.12V198.5ZM179.92 270V271H180.566L180.831 270.411L179.92 270ZM156.131 269.589L123.931 198.089L122.108 198.911L154.308 270.411L156.131 269.589ZM123.02 199.5H140.42V197.5H123.02V199.5ZM139.507 198.91L166.007 257.91L167.832 257.09L141.332 198.09L139.507 198.91ZM166.92 258.5H168.22V256.5H166.92V258.5ZM169.132 257.91L195.632 198.91L193.807 198.09L167.307 257.09L169.132 257.91ZM194.72 199.5H212.12V197.5H194.72V199.5ZM211.208 198.089L179.008 269.589L180.831 270.411L213.031 198.911L211.208 198.089ZM179.92 269H155.22V271H179.92V269ZM239.129 261.4L238.47 262.152L238.474 262.156L239.129 261.4ZM239.129 207.2L239.784 207.956L239.788 207.952L239.129 207.2ZM317.729 207.2L317.07 207.952L317.074 207.956L317.729 207.2ZM317.729 261.4L318.384 262.156L318.388 262.152L317.729 261.4ZM253.229 215L253.771 215.84L253.229 215ZM245.429 227.7L244.445 227.519L244.228 228.7H245.429V227.7ZM311.429 227.7V228.7H312.63L312.412 227.519L311.429 227.7ZM303.629 215L303.087 215.84L303.629 215ZM303.629 253.5L303.087 252.66L303.081 252.664L303.629 253.5ZM311.429 240.7L312.413 240.879L312.627 239.7H311.429V240.7ZM245.429 240.7V239.7H244.231L244.445 240.879L245.429 240.7ZM268.729 269.5C256.146 269.5 246.544 266.503 239.784 260.644L238.474 262.156C245.714 268.43 255.845 271.5 268.729 271.5V269.5ZM239.788 260.648C233.064 254.756 229.629 246.001 229.629 234.2H227.629C227.629 246.399 231.194 255.777 238.47 262.152L239.788 260.648ZM229.629 234.2C229.629 222.467 233.063 213.781 239.784 207.956L238.474 206.444C231.195 212.753 227.629 222.066 227.629 234.2H229.629ZM239.788 207.952C246.542 202.034 256.371 199 269.429 199V197C256.087 197 245.716 200.099 238.47 206.448L239.788 207.952ZM269.429 199H287.429V197H269.429V199ZM287.429 199C300.487 199 310.316 202.034 317.07 207.952L318.388 206.448C311.142 200.099 300.771 197 287.429 197V199ZM317.074 207.956C323.795 213.781 327.229 222.467 327.229 234.2H329.229C329.229 222.066 325.663 212.753 318.384 206.444L317.074 207.956ZM327.229 234.2C327.229 246.001 323.794 254.756 317.07 260.648L318.388 262.152C325.664 255.777 329.229 246.399 329.229 234.2H327.229ZM317.074 260.644C310.316 266.501 300.648 269.5 287.929 269.5V271.5C300.943 271.5 311.142 268.432 318.384 262.156L317.074 260.644ZM287.929 269.5H268.729V271.5H287.929V269.5ZM270.529 210C263.027 210 257.044 211.349 252.687 214.16L253.771 215.84C257.681 213.318 263.231 212 270.529 212V210ZM252.687 214.16C248.276 217.005 245.551 221.506 244.445 227.519L246.412 227.881C247.44 222.294 249.915 218.328 253.771 215.84L252.687 214.16ZM245.429 228.7H311.429V226.7H245.429V228.7ZM312.412 227.519C311.307 221.506 308.582 217.005 304.171 214.16L303.087 215.84C306.943 218.328 309.418 222.294 310.445 227.881L312.412 227.519ZM304.171 214.16C299.814 211.349 293.831 210 286.329 210V212C293.627 212 299.177 213.318 303.087 215.84L304.171 214.16ZM286.329 210H270.529V212H286.329V210ZM270.829 258.5H286.329V256.5H270.829V258.5ZM286.329 258.5C293.894 258.5 299.882 257.153 304.177 254.336L303.081 252.664C299.242 255.181 293.698 256.5 286.329 256.5V258.5ZM304.171 254.34C308.585 251.493 311.308 246.955 312.413 240.879L310.445 240.521C309.417 246.178 306.939 250.174 303.087 252.66L304.171 254.34ZM311.429 239.7H245.429V241.7H311.429V239.7ZM244.445 240.879C245.55 246.955 248.273 251.493 252.687 254.34L253.771 252.66C249.918 250.174 247.441 246.178 246.413 240.521L244.445 240.879ZM252.687 254.34C257.047 257.154 263.133 258.5 270.829 258.5V256.5C263.324 256.5 257.677 255.18 253.771 252.66L252.687 254.34ZM4.5 333.7H3.5V334.7H4.5V333.7ZM4.5 297.5V296.5H3.5V297.5H4.5ZM92.5 297.5H93.5V296.5H92.5V297.5ZM92.5 333.7V334.7H93.5V333.7H92.5ZM76.3 333.7H75.3V334.7H76.3V333.7ZM76.3 310.5H77.3V309.5H76.3V310.5ZM54.5 310.5V309.5H53.5V310.5H54.5ZM54.5 369V370H55.5V369H54.5ZM38.5 369H37.5V370H38.5V369ZM38.5 310.5H39.5V309.5H38.5V310.5ZM20.7 310.5V309.5H19.7V310.5H20.7ZM20.7 333.7V334.7H21.7V333.7H20.7ZM5.5 333.7V297.5H3.5V333.7H5.5ZM4.5 298.5H92.5V296.5H4.5V298.5ZM91.5 297.5V333.7H93.5V297.5H91.5ZM92.5 332.7H76.3V334.7H92.5V332.7ZM77.3 333.7V310.5H75.3V333.7H77.3ZM76.3 309.5H54.5V311.5H76.3V309.5ZM53.5 310.5V369H55.5V310.5H53.5ZM54.5 368H38.5V370H54.5V368ZM39.5 369V310.5H37.5V369H39.5ZM38.5 309.5H20.7V311.5H38.5V309.5ZM19.7 310.5V333.7H21.7V310.5H19.7ZM20.7 332.7H4.5V334.7H20.7V332.7ZM119.473 369H118.473V370H119.473V369ZM119.473 297.5V296.5H118.473V297.5H119.473ZM197.873 297.5H198.873V296.5H197.873V297.5ZM197.873 310.5V311.5H198.873V310.5H197.873ZM135.473 310.5V309.5H134.473V310.5H135.473ZM135.473 326.3H134.473V327.3H135.473V326.3ZM192.073 326.3H193.073V325.3H192.073V326.3ZM192.073 339.3V340.3H193.073V339.3H192.073ZM135.473 339.3V338.3H134.473V339.3H135.473ZM135.473 356H134.473V357H135.473V356ZM197.873 356H198.873V355H197.873V356ZM197.873 369V370H198.873V369H197.873ZM120.473 369V297.5H118.473V369H120.473ZM119.473 298.5H197.873V296.5H119.473V298.5ZM196.873 297.5V310.5H198.873V297.5H196.873ZM197.873 309.5H135.473V311.5H197.873V309.5ZM134.473 310.5V326.3H136.473V310.5H134.473ZM135.473 327.3H192.073V325.3H135.473V327.3ZM191.073 326.3V339.3H193.073V326.3H191.073ZM192.073 338.3H135.473V340.3H192.073V338.3ZM134.473 339.3V356H136.473V339.3H134.473ZM135.473 357H197.873V355H135.473V357ZM196.873 356V369H198.873V356H196.873ZM197.873 368H119.473V370H197.873V368Z" fill="url(#paint0_linear_310_267)"/>
<path d="M34.104 15.944V68H27.048V15.944H34.104ZM47.28 49.424H32.52V43.088H45.768C49.272 43.088 51.96 42.152 53.832 40.28C55.704 38.36 56.64 35.792 56.64 32.576C56.64 29.312 55.704 26.792 53.832 25.016C51.96 23.192 49.368 22.28 46.056 22.28H30.936V15.944H47.28C50.688 15.944 53.64 16.64 56.136 18.032C58.632 19.424 60.576 21.368 61.968 23.864C63.36 26.36 64.056 29.288 64.056 32.648C64.056 35.864 63.36 38.744 61.968 41.288C60.576 43.832 58.632 45.824 56.136 47.264C53.64 48.704 50.688 49.424 47.28 49.424ZM77.664 67.928H70.896V15.008H77.664V38.192C78.768 36.272 80.352 34.736 82.416 33.584C84.48 32.384 86.88 31.784 89.616 31.784C94.08 31.784 97.416 33.104 99.624 35.744C101.832 38.384 102.936 41.96 102.936 46.472V68H96.168V47.984C96.168 45.584 95.808 43.664 95.088 42.224C94.416 40.736 93.432 39.656 92.136 38.984C90.888 38.312 89.424 37.976 87.744 37.976C85.584 37.976 83.736 38.456 82.2 39.416C80.712 40.376 79.584 41.672 78.816 43.304C78.048 44.936 77.664 46.76 77.664 48.776V67.928ZM122.606 68.864C118.862 68.864 115.91 67.88 113.75 65.912C111.638 63.944 110.582 61.376 110.582 58.208C110.582 54.992 111.734 52.424 114.038 50.504C116.342 48.536 119.558 47.384 123.686 47.048L134.774 46.184V45.176C134.774 43.208 134.414 41.648 133.694 40.496C132.974 39.296 131.99 38.456 130.742 37.976C129.494 37.448 128.078 37.184 126.494 37.184C123.662 37.184 121.454 37.784 119.87 38.984C118.334 40.136 117.566 41.792 117.566 43.952H111.662C111.662 41.504 112.286 39.368 113.534 37.544C114.782 35.72 116.534 34.304 118.79 33.296C121.094 32.288 123.758 31.784 126.782 31.784C129.71 31.784 132.254 32.312 134.414 33.368C136.622 34.376 138.326 35.936 139.526 38.048C140.774 40.112 141.398 42.728 141.398 45.896V68H135.638L134.918 62.312C134.006 64.328 132.422 65.936 130.166 67.136C127.958 68.288 125.438 68.864 122.606 68.864ZM124.55 63.608C127.766 63.608 130.286 62.648 132.11 60.728C133.934 58.76 134.846 56.12 134.846 52.808V50.936L125.846 51.656C122.87 51.944 120.71 52.64 119.366 53.744C118.07 54.848 117.422 56.264 117.422 57.992C117.422 59.864 118.046 61.28 119.294 62.24C120.59 63.152 122.342 63.608 124.55 63.608ZM157.539 68H150.771V32.792H156.891L157.611 38.192C158.715 36.176 160.299 34.616 162.363 33.512C164.475 32.36 166.779 31.784 169.275 31.784C173.883 31.784 177.291 33.104 179.499 35.744C181.707 38.384 182.811 41.96 182.811 46.472V68H176.043V47.984C176.043 44.432 175.275 41.888 173.739 40.352C172.203 38.768 170.139 37.976 167.547 37.976C164.379 37.976 161.907 39.008 160.131 41.072C158.403 43.136 157.539 45.896 157.539 49.352V68ZM188.441 32.792H209.033V38.48H188.441V32.792ZM202.121 68H195.353V21.776H202.121V68ZM212.451 50.36C212.451 46.76 213.243 43.568 214.827 40.784C216.411 38 218.571 35.816 221.307 34.232C224.091 32.648 227.259 31.856 230.811 31.856C234.363 31.856 237.507 32.648 240.243 34.232C242.979 35.816 245.139 38 246.723 40.784C248.307 43.568 249.099 46.76 249.099 50.36C249.099 53.96 248.307 57.152 246.723 59.936C245.139 62.72 242.979 64.904 240.243 66.488C237.507 68.072 234.363 68.864 230.811 68.864C227.259 68.864 224.091 68.072 221.307 66.488C218.571 64.904 216.411 62.72 214.827 59.936C213.243 57.152 212.451 53.96 212.451 50.36ZM219.291 50.36C219.291 52.808 219.771 54.968 220.731 56.84C221.739 58.712 223.107 60.176 224.835 61.232C226.563 62.288 228.555 62.816 230.811 62.816C233.067 62.816 235.059 62.288 236.787 61.232C238.515 60.176 239.859 58.712 240.819 56.84C241.827 54.968 242.331 52.808 242.331 50.36C242.331 47.864 241.827 45.704 240.819 43.88C239.859 42.008 238.515 40.544 236.787 39.488C235.059 38.432 233.067 37.904 230.811 37.904C228.555 37.904 226.563 38.432 224.835 39.488C223.107 40.544 221.739 42.008 220.731 43.88C219.771 45.704 219.291 47.864 219.291 50.36ZM263.359 68H256.591V32.792H262.639L263.575 39.272L262.711 38.696C263.431 36.728 264.751 35.096 266.671 33.8C268.639 32.456 271.015 31.784 273.799 31.784C276.919 31.784 279.511 32.624 281.575 34.304C283.639 35.984 284.983 38.216 285.607 41H284.383C284.863 38.216 286.183 35.984 288.343 34.304C290.503 32.624 293.167 31.784 296.335 31.784C300.367 31.784 303.535 32.96 305.839 35.312C308.143 37.664 309.295 40.88 309.295 44.96V68H302.671V46.616C302.671 43.832 301.951 41.696 300.511 40.208C299.119 38.672 297.223 37.904 294.823 37.904C293.143 37.904 291.655 38.288 290.359 39.056C289.111 39.776 288.127 40.832 287.407 42.224C286.687 43.616 286.327 45.248 286.327 47.12V68H279.631V46.544C279.631 43.76 278.935 41.648 277.543 40.208C276.151 38.72 274.255 37.976 271.855 37.976C270.175 37.976 268.687 38.36 267.391 39.128C266.143 39.848 265.159 40.904 264.439 42.296C263.719 43.64 263.359 45.248 263.359 47.12V68Z" fill="black"/>
<path d="M41.52 151L21.72 98.944H29.28L41.952 132.208C42.528 133.648 43.08 135.16 43.608 136.744C44.136 138.28 44.664 140.032 45.192 142C45.816 139.936 46.416 138.064 46.992 136.384C47.568 134.704 48.072 133.288 48.504 132.136L61.104 98.944H68.448L48.864 151H41.52ZM66.0608 133.36C66.0608 129.76 66.8528 126.568 68.4368 123.784C70.0208 121 72.1808 118.816 74.9168 117.232C77.7008 115.648 80.8688 114.856 84.4208 114.856C87.9728 114.856 91.1168 115.648 93.8528 117.232C96.5888 118.816 98.7488 121 100.333 123.784C101.917 126.568 102.709 129.76 102.709 133.36C102.709 136.96 101.917 140.152 100.333 142.936C98.7488 145.72 96.5888 147.904 93.8528 149.488C91.1168 151.072 87.9728 151.864 84.4208 151.864C80.8688 151.864 77.7008 151.072 74.9168 149.488C72.1808 147.904 70.0208 145.72 68.4368 142.936C66.8528 140.152 66.0608 136.96 66.0608 133.36ZM72.9008 133.36C72.9008 135.808 73.3808 137.968 74.3408 139.84C75.3488 141.712 76.7168 143.176 78.4448 144.232C80.1728 145.288 82.1648 145.816 84.4208 145.816C86.6768 145.816 88.6688 145.288 90.3968 144.232C92.1248 143.176 93.4688 141.712 94.4288 139.84C95.4368 137.968 95.9408 135.808 95.9408 133.36C95.9408 130.864 95.4368 128.704 94.4288 126.88C93.4688 125.008 92.1248 123.544 90.3968 122.488C88.6688 121.432 86.6768 120.904 84.4208 120.904C82.1648 120.904 80.1728 121.432 78.4448 122.488C76.7168 123.544 75.3488 125.008 74.3408 126.88C73.3808 128.704 72.9008 130.864 72.9008 133.36ZM106.105 115.792H126.697V121.48H106.105V115.792ZM119.785 151H113.017V104.776H119.785V151ZM147.611 151.864C144.203 151.864 141.179 151.096 138.539 149.56C135.899 147.976 133.835 145.816 132.347 143.08C130.859 140.296 130.115 137.08 130.115 133.432C130.115 129.736 130.835 126.496 132.275 123.712C133.763 120.928 135.779 118.744 138.323 117.16C140.915 115.576 143.915 114.784 147.323 114.784C150.683 114.784 153.587 115.504 156.035 116.944C158.531 118.384 160.451 120.4 161.795 122.992C163.187 125.584 163.883 128.632 163.883 132.136V134.656L133.715 134.728L133.859 130.192H157.115C157.115 127.264 156.227 124.912 154.451 123.136C152.675 121.36 150.299 120.472 147.323 120.472C145.067 120.472 143.123 120.976 141.491 121.984C139.907 122.944 138.683 124.384 137.819 126.304C137.003 128.176 136.595 130.432 136.595 133.072C136.595 137.296 137.555 140.56 139.475 142.864C141.395 145.12 144.155 146.248 147.755 146.248C150.395 146.248 152.555 145.72 154.235 144.664C155.915 143.608 157.043 142.072 157.619 140.056H163.955C163.091 143.8 161.243 146.704 158.411 148.768C155.579 150.832 151.979 151.864 147.611 151.864Z" fill="white"/>
<rect x="318" y="74" width="15" height="291" transform="rotate(90 318 74)" fill="url(#paint1_linear_310_267)"/>
<defs>
<linearGradient id="paint0_linear_310_267" x1="169" y1="0" x2="169" y2="368" gradientUnits="userSpaceOnUse">
<stop/>
<stop offset="1" stop-opacity="0"/>
</linearGradient>
<linearGradient id="paint1_linear_310_267" x1="325.5" y1="74" x2="325.5" y2="365" gradientUnits="userSpaceOnUse">
<stop stop-color="#45FF90"/>
<stop offset="1" stop-color="#45FF90" stop-opacity="0"/>
</linearGradient>
</defs>
</svg>
