<svg width="325" height="369" viewBox="0 0 325 369" fill="none" xmlns="http://www.w3.org/2000/svg">
<path opacity="0.4" d="M3 72H2V73H3V72ZM3 0.499997V-0.500003H2V0.499997H3ZM80.1 6.1L79.4237 6.83667L79.4297 6.8421L80.1 6.1ZM80.1 40.1L79.4297 39.3579L79.4237 39.3633L80.1 40.1ZM19 45.7V44.7H18V45.7H19ZM19 72V73H20V72H19ZM19 13.5V12.5H18V13.5H19ZM19 32.6H18V33.5976L18.9976 33.6L19 32.6ZM61 32.7L60.9976 33.7H61V32.7ZM67.7 30.5L67.0243 29.7628L67.0164 29.77L67.0088 29.7774L67.7 30.5ZM67.7 15.7L67.0088 16.4226L67.0248 16.438L67.0415 16.4526L67.7 15.7ZM4 72V0.499997H2V72H4ZM3 1.5H62.9V-0.500003H3V1.5ZM62.9 1.5C70.1364 1.5 75.5968 3.32344 79.4237 6.83665L80.7763 5.36334C76.4698 1.40989 70.4636 -0.500003 62.9 -0.500003V1.5ZM79.4297 6.8421C83.2848 10.3241 85.3 15.6755 85.3 23.1H87.3C87.3 15.3245 85.1818 9.34251 80.7703 5.35789L79.4297 6.8421ZM85.3 23.1C85.3 30.5245 83.2848 35.8758 79.4297 39.3579L80.7703 40.8421C85.1818 36.8575 87.3 30.8755 87.3 23.1H85.3ZM79.4237 39.3633C75.5968 42.8766 70.1364 44.7 62.9 44.7V46.7C70.4636 46.7 76.4698 44.7901 80.7763 40.8367L79.4237 39.3633ZM62.9 44.7H19V46.7H62.9V44.7ZM18 45.7V72H20V45.7H18ZM19 71H3V73H19V71ZM61 12.5H19V14.5H61V12.5ZM18 13.5V32.6H20V13.5H18ZM18.9976 33.6L60.9976 33.7L61.0024 31.7L19.0024 31.6L18.9976 33.6ZM61 33.7C64.0911 33.7 66.6104 32.926 68.3912 31.2226L67.0088 29.7774C65.7229 31.0073 63.7756 31.7 61 31.7V33.7ZM68.3757 31.2372C70.278 29.4934 71.1 26.6836 71.1 23.1H69.1C69.1 26.4498 68.322 28.5733 67.0243 29.7628L68.3757 31.2372ZM71.1 23.1C71.1 19.4628 70.2838 16.632 68.3585 14.9474L67.0415 16.4526C68.3162 17.568 69.1 19.6705 69.1 23.1H71.1ZM68.3912 14.9774C66.6104 13.274 64.0911 12.5 61 12.5V14.5C63.7756 14.5 65.7229 15.1927 67.0088 16.4226L68.3912 14.9774ZM111.762 72H110.762V73H111.762V72ZM111.762 0.499997V-0.500003H110.762V0.499997H111.762ZM127.762 0.499997H128.762V-0.500003H127.762V0.499997ZM127.762 29.8H126.762V30.8H127.762V29.8ZM178.162 29.8V30.8H179.162V29.8H178.162ZM178.162 0.499997V-0.500003H177.162V0.499997H178.162ZM194.162 0.499997H195.162V-0.500003H194.162V0.499997ZM194.162 72V73H195.162V72H194.162ZM178.162 72H177.162V73H178.162V72ZM178.162 42.8H179.162V41.8H178.162V42.8ZM127.762 42.8V41.8H126.762V42.8H127.762ZM127.762 72V73H128.762V72H127.762ZM112.762 72V0.499997H110.762V72H112.762ZM111.762 1.5H127.762V-0.500003H111.762V1.5ZM126.762 0.499997V29.8H128.762V0.499997H126.762ZM127.762 30.8H178.162V28.8H127.762V30.8ZM179.162 29.8V0.499997H177.162V29.8H179.162ZM178.162 1.5H194.162V-0.500003H178.162V1.5ZM193.162 0.499997V72H195.162V0.499997H193.162ZM194.162 71H178.162V73H194.162V71ZM179.162 72V42.8H177.162V72H179.162ZM178.162 41.8H127.762V43.8H178.162V41.8ZM126.762 42.8V72H128.762V42.8H126.762ZM127.762 71H111.762V73H127.762V71ZM217.648 72L216.737 71.5894L216.101 73H217.648V72ZM249.848 0.499997V-0.500003H249.202L248.937 0.0893669L249.848 0.499997ZM274.548 0.499997L275.46 0.0893669L275.195 -0.500003H274.548V0.499997ZM306.748 72V73H308.296L307.66 71.5894L306.748 72ZM289.348 72L288.437 72.4106L288.702 73H289.348V72ZM282.548 56.9L283.46 56.4894L283.195 55.9H282.548V56.9ZM241.848 56.9V55.9H241.202L240.937 56.4894L241.848 56.9ZM235.048 72V73H235.695L235.96 72.4106L235.048 72ZM247.648 43.9L246.736 43.4898L246.102 44.9H247.648V43.9ZM276.748 43.9V44.9H278.295L277.66 43.4898L276.748 43.9ZM262.848 13L263.76 12.5898L263.495 12H262.848V13ZM261.548 13V12H260.902L260.636 12.5898L261.548 13ZM218.56 72.4106L250.76 0.910626L248.937 0.0893669L216.737 71.5894L218.56 72.4106ZM249.848 1.5H274.548V-0.500003H249.848V1.5ZM273.637 0.910626L305.837 72.4106L307.66 71.5894L275.46 0.0893669L273.637 0.910626ZM306.748 71H289.348V73H306.748V71ZM290.26 71.5894L283.46 56.4894L281.637 57.3106L288.437 72.4106L290.26 71.5894ZM282.548 55.9H241.848V57.9H282.548V55.9ZM240.937 56.4894L234.137 71.5894L235.96 72.4106L242.76 57.3106L240.937 56.4894ZM235.048 71H217.648V73H235.048V71ZM247.648 44.9H276.748V42.9H247.648V44.9ZM277.66 43.4898L263.76 12.5898L261.936 13.4102L275.836 44.3102L277.66 43.4898ZM262.848 12H261.548V14H262.848V12ZM260.636 12.5898L246.736 43.4898L248.56 44.3102L262.46 13.4102L260.636 12.5898ZM3 171H2V172H3V171ZM3 99.5V98.5H2V99.5H3ZM19.2 99.5L19.9126 98.7985L19.6188 98.5H19.2V99.5ZM69.8 150.9L69.0874 151.602L70.8 153.341V150.9H69.8ZM69.8 99.5V98.5H68.8V99.5H69.8ZM85.8 99.5H86.8V98.5H85.8V99.5ZM85.8 171V172H86.8V171H85.8ZM69.6 171L68.8867 171.701L69.1806 172H69.6V171ZM19 119.5L19.7133 118.799L18 117.055V119.5H19ZM19 171V172H20V171H19ZM4 171V99.5H2V171H4ZM3 100.5H19.2V98.5H3V100.5ZM18.4874 100.202L69.0874 151.602L70.5126 150.198L19.9126 98.7985L18.4874 100.202ZM70.8 150.9V99.5H68.8V150.9H70.8ZM69.8 100.5H85.8V98.5H69.8V100.5ZM84.8 99.5V171H86.8V99.5H84.8ZM85.8 170H69.6V172H85.8V170ZM70.3133 170.299L19.7133 118.799L18.2867 120.201L68.8867 171.701L70.3133 170.299ZM18 119.5V171H20V119.5H18ZM19 170H3V172H19V170ZM112.777 135.7H111.777V136.7H112.777V135.7ZM112.777 99.5V98.5H111.777V99.5H112.777ZM200.777 99.5H201.777V98.5H200.777V99.5ZM200.777 135.7V136.7H201.777V135.7H200.777ZM184.577 135.7H183.577V136.7H184.577V135.7ZM184.577 112.5H185.577V111.5H184.577V112.5ZM162.777 112.5V111.5H161.777V112.5H162.777ZM162.777 171V172H163.777V171H162.777ZM146.777 171H145.777V172H146.777V171ZM146.777 112.5H147.777V111.5H146.777V112.5ZM128.977 112.5V111.5H127.977V112.5H128.977ZM128.977 135.7V136.7H129.977V135.7H128.977ZM113.777 135.7V99.5H111.777V135.7H113.777ZM112.777 100.5H200.777V98.5H112.777V100.5ZM199.777 99.5V135.7H201.777V99.5H199.777ZM200.777 134.7H184.577V136.7H200.777V134.7ZM185.577 135.7V112.5H183.577V135.7H185.577ZM184.577 111.5H162.777V113.5H184.577V111.5ZM161.777 112.5V171H163.777V112.5H161.777ZM162.777 170H146.777V172H162.777V170ZM147.777 171V112.5H145.777V171H147.777ZM146.777 111.5H128.977V113.5H146.777V111.5ZM127.977 112.5V135.7H129.977V112.5H127.977ZM128.977 134.7H112.777V136.7H128.977V134.7ZM234.25 162.4L233.591 163.152L233.595 163.156L234.25 162.4ZM234.25 108.2L234.905 108.956L234.909 108.952L234.25 108.2ZM312.85 108.2L312.191 108.952L312.195 108.956L312.85 108.2ZM312.85 162.4L313.505 163.156L313.509 163.152L312.85 162.4ZM248.35 116L248.892 116.84L248.35 116ZM240.55 128.7L239.566 128.519L239.349 129.7H240.55V128.7ZM306.55 128.7V129.7H307.751L307.534 128.519L306.55 128.7ZM298.75 116L298.208 116.84L298.75 116ZM298.75 154.5L298.208 153.66L298.202 153.664L298.75 154.5ZM306.55 141.7L307.534 141.879L307.748 140.7H306.55V141.7ZM240.55 141.7V140.7H239.352L239.566 141.879L240.55 141.7ZM263.85 170.5C251.267 170.5 241.665 167.503 234.905 161.644L233.595 163.156C240.835 169.43 250.966 172.5 263.85 172.5V170.5ZM234.909 161.648C228.185 155.756 224.75 147.001 224.75 135.2H222.75C222.75 147.399 226.315 156.777 233.591 163.152L234.909 161.648ZM224.75 135.2C224.75 123.467 228.184 114.781 234.905 108.956L233.595 107.444C226.316 113.753 222.75 123.066 222.75 135.2H224.75ZM234.909 108.952C241.663 103.034 251.492 100 264.55 100V98C251.208 98 240.837 101.099 233.591 107.448L234.909 108.952ZM264.55 100H282.55V98H264.55V100ZM282.55 100C295.608 100 305.437 103.034 312.191 108.952L313.509 107.448C306.263 101.099 295.892 98 282.55 98V100ZM312.195 108.956C318.916 114.781 322.35 123.467 322.35 135.2H324.35C324.35 123.066 320.784 113.753 313.505 107.444L312.195 108.956ZM322.35 135.2C322.35 147.001 318.915 155.756 312.191 161.648L313.509 163.152C320.785 156.777 324.35 147.399 324.35 135.2H322.35ZM312.195 161.644C305.437 167.501 295.769 170.5 283.05 170.5V172.5C296.064 172.5 306.263 169.432 313.505 163.156L312.195 161.644ZM283.05 170.5H263.85V172.5H283.05V170.5ZM265.65 111C258.148 111 252.165 112.349 247.808 115.16L248.892 116.84C252.802 114.318 258.352 113 265.65 113V111ZM247.808 115.16C243.397 118.005 240.672 122.506 239.566 128.519L241.534 128.881C242.561 123.294 245.036 119.328 248.892 116.84L247.808 115.16ZM240.55 129.7H306.55V127.7H240.55V129.7ZM307.534 128.519C306.428 122.506 303.703 118.005 299.292 115.16L298.208 116.84C302.064 119.328 304.539 123.294 305.566 128.881L307.534 128.519ZM299.292 115.16C294.935 112.349 288.952 111 281.45 111V113C288.748 113 294.298 114.318 298.208 116.84L299.292 115.16ZM281.45 111H265.65V113H281.45V111ZM265.95 159.5H281.45V157.5H265.95V159.5ZM281.45 159.5C289.015 159.5 295.003 158.153 299.298 155.336L298.202 153.664C294.363 156.181 288.819 157.5 281.45 157.5V159.5ZM299.292 155.34C303.706 152.493 306.429 147.955 307.534 141.879L305.566 141.521C304.538 147.178 302.061 151.174 298.208 153.66L299.292 155.34ZM306.55 140.7H240.55V142.7H306.55V140.7ZM239.566 141.879C240.671 147.955 243.394 152.493 247.808 155.34L248.892 153.66C245.039 151.174 242.562 147.178 241.534 141.521L239.566 141.879ZM247.808 155.34C252.168 158.154 258.255 159.5 265.95 159.5V157.5C258.445 157.5 252.798 156.18 248.892 153.66L247.808 155.34ZM3 270H2V271H3V270ZM3 198.5V197.5H2V198.5H3ZM16.4 198.5L16.974 197.681L16.7156 197.5H16.4V198.5ZM49.5 221.7L48.926 222.519L49.1844 222.7H49.5V221.7ZM50 221.7V222.7H50.3156L50.574 222.519L50 221.7ZM83.1 198.5V197.5H82.7844L82.526 197.681L83.1 198.5ZM96.5 198.5H97.5V197.5H96.5V198.5ZM96.5 270V271H97.5V270H96.5ZM80.5 270H79.5V271H80.5V270ZM80.5 218.5H81.5V216.627L79.9436 217.669L80.5 218.5ZM57.8 233.7L57.2436 232.869L56.8 233.166V233.7H57.8ZM57.8 270V271H58.8V270H57.8ZM41.8 270H40.8V271H41.8V270ZM41.8 233.7H42.8V233.165L42.3547 232.868L41.8 233.7ZM19 218.5L19.5547 217.668L18 216.631V218.5H19ZM19 270V271H20V270H19ZM4 270V198.5H2V270H4ZM3 199.5H16.4V197.5H3V199.5ZM15.826 199.319L48.926 222.519L50.074 220.881L16.974 197.681L15.826 199.319ZM49.5 222.7H50V220.7H49.5V222.7ZM50.574 222.519L83.674 199.319L82.526 197.681L49.426 220.881L50.574 222.519ZM83.1 199.5H96.5V197.5H83.1V199.5ZM95.5 198.5V270H97.5V198.5H95.5ZM96.5 269H80.5V271H96.5V269ZM81.5 270V218.5H79.5V270H81.5ZM79.9436 217.669L57.2436 232.869L58.3564 234.531L81.0564 219.331L79.9436 217.669ZM56.8 233.7V270H58.8V233.7H56.8ZM57.8 269H41.8V271H57.8V269ZM42.8 270V233.7H40.8V270H42.8ZM42.3547 232.868L19.5547 217.668L18.4453 219.332L41.2453 234.532L42.3547 232.868ZM18 218.5V270H20V218.5H18ZM19 269H3V271H19V269ZM151.22 270L150.308 270.411L150.573 271H151.22V270ZM119.02 198.5V197.5H117.472L118.108 198.911L119.02 198.5ZM136.42 198.5L137.332 198.09L137.067 197.5H136.42V198.5ZM162.92 257.5L162.007 257.91L162.272 258.5H162.92V257.5ZM164.22 257.5V258.5H164.867L165.132 257.91L164.22 257.5ZM190.72 198.5V197.5H190.072L189.807 198.09L190.72 198.5ZM208.12 198.5L209.031 198.911L209.667 197.5H208.12V198.5ZM175.92 270V271H176.566L176.831 270.411L175.92 270ZM152.131 269.589L119.931 198.089L118.108 198.911L150.308 270.411L152.131 269.589ZM119.02 199.5H136.42V197.5H119.02V199.5ZM135.507 198.91L162.007 257.91L163.832 257.09L137.332 198.09L135.507 198.91ZM162.92 258.5H164.22V256.5H162.92V258.5ZM165.132 257.91L191.632 198.91L189.807 198.09L163.307 257.09L165.132 257.91ZM190.72 199.5H208.12V197.5H190.72V199.5ZM207.208 198.089L175.008 269.589L176.831 270.411L209.031 198.911L207.208 198.089ZM175.92 269H151.22V271H175.92V269ZM235.129 261.4L234.47 262.152L234.474 262.156L235.129 261.4ZM235.129 207.2L235.784 207.956L235.788 207.952L235.129 207.2ZM313.729 207.2L313.07 207.952L313.074 207.956L313.729 207.2ZM313.729 261.4L314.384 262.156L314.388 262.152L313.729 261.4ZM249.229 215L249.771 215.84L249.229 215ZM241.429 227.7L240.445 227.519L240.228 228.7H241.429V227.7ZM307.429 227.7V228.7H308.63L308.412 227.519L307.429 227.7ZM299.629 215L299.087 215.84L299.629 215ZM299.629 253.5L299.087 252.66L299.081 252.664L299.629 253.5ZM307.429 240.7L308.413 240.879L308.627 239.7H307.429V240.7ZM241.429 240.7V239.7H240.231L240.445 240.879L241.429 240.7ZM264.729 269.5C252.146 269.5 242.544 266.503 235.784 260.644L234.474 262.156C241.714 268.43 251.845 271.5 264.729 271.5V269.5ZM235.788 260.648C229.064 254.756 225.629 246.001 225.629 234.2H223.629C223.629 246.399 227.194 255.777 234.47 262.152L235.788 260.648ZM225.629 234.2C225.629 222.467 229.063 213.781 235.784 207.956L234.474 206.444C227.195 212.753 223.629 222.066 223.629 234.2H225.629ZM235.788 207.952C242.542 202.034 252.371 199 265.429 199V197C252.087 197 241.716 200.099 234.47 206.448L235.788 207.952ZM265.429 199H283.429V197H265.429V199ZM283.429 199C296.487 199 306.316 202.034 313.07 207.952L314.388 206.448C307.142 200.099 296.771 197 283.429 197V199ZM313.074 207.956C319.795 213.781 323.229 222.467 323.229 234.2H325.229C325.229 222.066 321.663 212.753 314.384 206.444L313.074 207.956ZM323.229 234.2C323.229 246.001 319.794 254.756 313.07 260.648L314.388 262.152C321.664 255.777 325.229 246.399 325.229 234.2H323.229ZM313.074 260.644C306.316 266.501 296.648 269.5 283.929 269.5V271.5C296.943 271.5 307.142 268.432 314.384 262.156L313.074 260.644ZM283.929 269.5H264.729V271.5H283.929V269.5ZM266.529 210C259.027 210 253.044 211.349 248.687 214.16L249.771 215.84C253.681 213.318 259.231 212 266.529 212V210ZM248.687 214.16C244.276 217.005 241.551 221.506 240.445 227.519L242.412 227.881C243.44 222.294 245.915 218.328 249.771 215.84L248.687 214.16ZM241.429 228.7H307.429V226.7H241.429V228.7ZM308.412 227.519C307.307 221.506 304.582 217.005 300.171 214.16L299.087 215.84C302.943 218.328 305.418 222.294 306.445 227.881L308.412 227.519ZM300.171 214.16C295.814 211.349 289.831 210 282.329 210V212C289.627 212 295.177 213.318 299.087 215.84L300.171 214.16ZM282.329 210H266.529V212H282.329V210ZM266.829 258.5H282.329V256.5H266.829V258.5ZM282.329 258.5C289.894 258.5 295.882 257.153 300.177 254.336L299.081 252.664C295.242 255.181 289.698 256.5 282.329 256.5V258.5ZM300.171 254.34C304.585 251.493 307.308 246.955 308.413 240.879L306.445 240.521C305.417 246.178 302.939 250.174 299.087 252.66L300.171 254.34ZM307.429 239.7H241.429V241.7H307.429V239.7ZM240.445 240.879C241.55 246.955 244.273 251.493 248.687 254.34L249.771 252.66C245.918 250.174 243.441 246.178 242.413 240.521L240.445 240.879ZM248.687 254.34C253.047 257.154 259.133 258.5 266.829 258.5V256.5C259.324 256.5 253.677 255.18 249.771 252.66L248.687 254.34ZM0.5 333.7H-0.5V334.7H0.5V333.7ZM0.5 297.5V296.5H-0.5V297.5H0.5ZM88.5 297.5H89.5V296.5H88.5V297.5ZM88.5 333.7V334.7H89.5V333.7H88.5ZM72.3 333.7H71.3V334.7H72.3V333.7ZM72.3 310.5H73.3V309.5H72.3V310.5ZM50.5 310.5V309.5H49.5V310.5H50.5ZM50.5 369V370H51.5V369H50.5ZM34.5 369H33.5V370H34.5V369ZM34.5 310.5H35.5V309.5H34.5V310.5ZM16.7 310.5V309.5H15.7V310.5H16.7ZM16.7 333.7V334.7H17.7V333.7H16.7ZM1.5 333.7V297.5H-0.5V333.7H1.5ZM0.5 298.5H88.5V296.5H0.5V298.5ZM87.5 297.5V333.7H89.5V297.5H87.5ZM88.5 332.7H72.3V334.7H88.5V332.7ZM73.3 333.7V310.5H71.3V333.7H73.3ZM72.3 309.5H50.5V311.5H72.3V309.5ZM49.5 310.5V369H51.5V310.5H49.5ZM50.5 368H34.5V370H50.5V368ZM35.5 369V310.5H33.5V369H35.5ZM34.5 309.5H16.7V311.5H34.5V309.5ZM15.7 310.5V333.7H17.7V310.5H15.7ZM16.7 332.7H0.5V334.7H16.7V332.7ZM115.473 369H114.473V370H115.473V369ZM115.473 297.5V296.5H114.473V297.5H115.473ZM193.873 297.5H194.873V296.5H193.873V297.5ZM193.873 310.5V311.5H194.873V310.5H193.873ZM131.473 310.5V309.5H130.473V310.5H131.473ZM131.473 326.3H130.473V327.3H131.473V326.3ZM188.073 326.3H189.073V325.3H188.073V326.3ZM188.073 339.3V340.3H189.073V339.3H188.073ZM131.473 339.3V338.3H130.473V339.3H131.473ZM131.473 356H130.473V357H131.473V356ZM193.873 356H194.873V355H193.873V356ZM193.873 369V370H194.873V369H193.873ZM116.473 369V297.5H114.473V369H116.473ZM115.473 298.5H193.873V296.5H115.473V298.5ZM192.873 297.5V310.5H194.873V297.5H192.873ZM193.873 309.5H131.473V311.5H193.873V309.5ZM130.473 310.5V326.3H132.473V310.5H130.473ZM131.473 327.3H188.073V325.3H131.473V327.3ZM187.073 326.3V339.3H189.073V326.3H187.073ZM188.073 338.3H131.473V340.3H188.073V338.3ZM130.473 339.3V356H132.473V339.3H130.473ZM131.473 357H193.873V355H131.473V357ZM192.873 356V369H194.873V356H192.873ZM193.873 368H115.473V370H193.873V368Z" fill="url(#paint0_linear_232_271)"/>
<defs>
<linearGradient id="paint0_linear_232_271" x1="165" y1="0" x2="165" y2="368" gradientUnits="userSpaceOnUse">
<stop/>
<stop offset="1" stop-opacity="0"/>
</linearGradient>
</defs>
</svg>
