<svg width="289" height="137" viewBox="0 0 289 137" fill="none" xmlns="http://www.w3.org/2000/svg">
<path d="M13.104 0.943996V53H6.048V0.943996H13.104ZM26.28 34.424H11.52V28.088H24.768C28.272 28.088 30.96 27.152 32.832 25.28C34.704 23.36 35.64 20.792 35.64 17.576C35.64 14.312 34.704 11.792 32.832 10.016C30.96 8.192 28.368 7.28 25.056 7.28H9.936V0.943996H26.28C29.688 0.943996 32.64 1.64 35.136 3.032C37.632 4.424 39.576 6.368 40.968 8.864C42.36 11.36 43.056 14.288 43.056 17.648C43.056 20.864 42.36 23.744 40.968 26.288C39.576 28.832 37.632 30.824 35.136 32.264C32.64 33.704 29.688 34.424 26.28 34.424ZM56.664 52.928H49.896V0.00799561H56.664V23.192C57.768 21.272 59.352 19.736 61.416 18.584C63.48 17.384 65.88 16.784 68.616 16.784C73.08 16.784 76.416 18.104 78.624 20.744C80.832 23.384 81.936 26.96 81.936 31.472V53H75.168V32.984C75.168 30.584 74.808 28.664 74.088 27.224C73.416 25.736 72.432 24.656 71.136 23.984C69.888 23.312 68.424 22.976 66.744 22.976C64.584 22.976 62.736 23.456 61.2 24.416C59.712 25.376 58.584 26.672 57.816 28.304C57.048 29.936 56.664 31.76 56.664 33.776V52.928ZM101.606 53.864C97.8621 53.864 94.9101 52.88 92.7501 50.912C90.6381 48.944 89.5821 46.376 89.5821 43.208C89.5821 39.992 90.7341 37.424 93.0381 35.504C95.3421 33.536 98.5581 32.384 102.686 32.048L113.774 31.184V30.176C113.774 28.208 113.414 26.648 112.694 25.496C111.974 24.296 110.99 23.456 109.742 22.976C108.494 22.448 107.078 22.184 105.494 22.184C102.662 22.184 100.454 22.784 98.8701 23.984C97.3341 25.136 96.5661 26.792 96.5661 28.952H90.6621C90.6621 26.504 91.2861 24.368 92.5341 22.544C93.7821 20.72 95.5341 19.304 97.7901 18.296C100.094 17.288 102.758 16.784 105.782 16.784C108.71 16.784 111.254 17.312 113.414 18.368C115.622 19.376 117.326 20.936 118.526 23.048C119.774 25.112 120.398 27.728 120.398 30.896V53H114.638L113.918 47.312C113.006 49.328 111.422 50.936 109.166 52.136C106.958 53.288 104.438 53.864 101.606 53.864ZM103.55 48.608C106.766 48.608 109.286 47.648 111.11 45.728C112.934 43.76 113.846 41.12 113.846 37.808V35.936L104.846 36.656C101.87 36.944 99.7101 37.64 98.3661 38.744C97.0701 39.848 96.4221 41.264 96.4221 42.992C96.4221 44.864 97.0461 46.28 98.2941 47.24C99.5901 48.152 101.342 48.608 103.55 48.608ZM136.539 53H129.771V17.792H135.891L136.611 23.192C137.715 21.176 139.299 19.616 141.363 18.512C143.475 17.36 145.779 16.784 148.275 16.784C152.883 16.784 156.291 18.104 158.499 20.744C160.707 23.384 161.811 26.96 161.811 31.472V53H155.043V32.984C155.043 29.432 154.275 26.888 152.739 25.352C151.203 23.768 149.139 22.976 146.547 22.976C143.379 22.976 140.907 24.008 139.131 26.072C137.403 28.136 136.539 30.896 136.539 34.352V53ZM167.441 17.792H188.033V23.48H167.441V17.792ZM181.121 53H174.353V6.776H181.121V53ZM191.451 35.36C191.451 31.76 192.243 28.568 193.827 25.784C195.411 23 197.571 20.816 200.307 19.232C203.091 17.648 206.259 16.856 209.811 16.856C213.363 16.856 216.507 17.648 219.243 19.232C221.979 20.816 224.139 23 225.723 25.784C227.307 28.568 228.099 31.76 228.099 35.36C228.099 38.96 227.307 42.152 225.723 44.936C224.139 47.72 221.979 49.904 219.243 51.488C216.507 53.072 213.363 53.864 209.811 53.864C206.259 53.864 203.091 53.072 200.307 51.488C197.571 49.904 195.411 47.72 193.827 44.936C192.243 42.152 191.451 38.96 191.451 35.36ZM198.291 35.36C198.291 37.808 198.771 39.968 199.731 41.84C200.739 43.712 202.107 45.176 203.835 46.232C205.563 47.288 207.555 47.816 209.811 47.816C212.067 47.816 214.059 47.288 215.787 46.232C217.515 45.176 218.859 43.712 219.819 41.84C220.827 39.968 221.331 37.808 221.331 35.36C221.331 32.864 220.827 30.704 219.819 28.88C218.859 27.008 217.515 25.544 215.787 24.488C214.059 23.432 212.067 22.904 209.811 22.904C207.555 22.904 205.563 23.432 203.835 24.488C202.107 25.544 200.739 27.008 199.731 28.88C198.771 30.704 198.291 32.864 198.291 35.36ZM242.359 53H235.591V17.792H241.639L242.575 24.272L241.711 23.696C242.431 21.728 243.751 20.096 245.671 18.8C247.639 17.456 250.015 16.784 252.799 16.784C255.919 16.784 258.511 17.624 260.575 19.304C262.639 20.984 263.983 23.216 264.607 26H263.383C263.863 23.216 265.183 20.984 267.343 19.304C269.503 17.624 272.167 16.784 275.335 16.784C279.367 16.784 282.535 17.96 284.839 20.312C287.143 22.664 288.295 25.88 288.295 29.96V53H281.671V31.616C281.671 28.832 280.951 26.696 279.511 25.208C278.119 23.672 276.223 22.904 273.823 22.904C272.143 22.904 270.655 23.288 269.359 24.056C268.111 24.776 267.127 25.832 266.407 27.224C265.687 28.616 265.327 30.248 265.327 32.12V53H258.631V31.544C258.631 28.76 257.935 26.648 256.543 25.208C255.151 23.72 253.255 22.976 250.855 22.976C249.175 22.976 247.687 23.36 246.391 24.128C245.143 24.848 244.159 25.904 243.439 27.296C242.719 28.64 242.359 30.248 242.359 32.12V53Z" fill="black"/>
<path d="M20.52 136L0.72 83.944H8.28L20.952 117.208C21.528 118.648 22.08 120.16 22.608 121.744C23.136 123.28 23.664 125.032 24.192 127C24.816 124.936 25.416 123.064 25.992 121.384C26.568 119.704 27.072 118.288 27.504 117.136L40.104 83.944H47.448L27.864 136H20.52ZM45.0608 118.36C45.0608 114.76 45.8528 111.568 47.4368 108.784C49.0208 106 51.1808 103.816 53.9168 102.232C56.7008 100.648 59.8688 99.856 63.4208 99.856C66.9728 99.856 70.1168 100.648 72.8528 102.232C75.5888 103.816 77.7488 106 79.3328 108.784C80.9168 111.568 81.7088 114.76 81.7088 118.36C81.7088 121.96 80.9168 125.152 79.3328 127.936C77.7488 130.72 75.5888 132.904 72.8528 134.488C70.1168 136.072 66.9728 136.864 63.4208 136.864C59.8688 136.864 56.7008 136.072 53.9168 134.488C51.1808 132.904 49.0208 130.72 47.4368 127.936C45.8528 125.152 45.0608 121.96 45.0608 118.36ZM51.9008 118.36C51.9008 120.808 52.3808 122.968 53.3408 124.84C54.3488 126.712 55.7168 128.176 57.4448 129.232C59.1728 130.288 61.1648 130.816 63.4208 130.816C65.6768 130.816 67.6688 130.288 69.3968 129.232C71.1248 128.176 72.4688 126.712 73.4288 124.84C74.4368 122.968 74.9408 120.808 74.9408 118.36C74.9408 115.864 74.4368 113.704 73.4288 111.88C72.4688 110.008 71.1248 108.544 69.3968 107.488C67.6688 106.432 65.6768 105.904 63.4208 105.904C61.1648 105.904 59.1728 106.432 57.4448 107.488C55.7168 108.544 54.3488 110.008 53.3408 111.88C52.3808 113.704 51.9008 115.864 51.9008 118.36ZM85.1051 100.792H105.697V106.48H85.1051V100.792ZM98.7851 136H92.0171V89.776H98.7851V136ZM126.611 136.864C123.203 136.864 120.179 136.096 117.539 134.56C114.899 132.976 112.835 130.816 111.347 128.08C109.859 125.296 109.115 122.08 109.115 118.432C109.115 114.736 109.835 111.496 111.275 108.712C112.763 105.928 114.779 103.744 117.323 102.16C119.915 100.576 122.915 99.784 126.323 99.784C129.683 99.784 132.587 100.504 135.035 101.944C137.531 103.384 139.451 105.4 140.795 107.992C142.187 110.584 142.883 113.632 142.883 117.136V119.656L112.715 119.728L112.859 115.192H136.115C136.115 112.264 135.227 109.912 133.451 108.136C131.675 106.36 129.299 105.472 126.323 105.472C124.067 105.472 122.123 105.976 120.491 106.984C118.907 107.944 117.683 109.384 116.819 111.304C116.003 113.176 115.595 115.432 115.595 118.072C115.595 122.296 116.555 125.56 118.475 127.864C120.395 130.12 123.155 131.248 126.755 131.248C129.395 131.248 131.555 130.72 133.235 129.664C134.915 128.608 136.043 127.072 136.619 125.056H142.955C142.091 128.8 140.243 131.704 137.411 133.768C134.579 135.832 130.979 136.864 126.611 136.864Z" fill="white"/>
</svg>
